@startuml container
!pragma useIntermediatePackages false

class container.Class1.UmlAttribute {
  name: str
  type: str
  static: bool
}
class container.Class1.UmlClass {
  attributes: List[UmlAttribute]
  is_abstract: bool
}
class container.Class2.UmlItem {
  name: str
  fqn: str
}
container.Class1.UmlClass *-- container.Class1.UmlAttribute
container.Class2.UmlItem <|-- container.Class1.UmlClass
footer Generated by //py2puml//
@enduml

